<mxfile host="65bd71144e">
    <diagram id="Ykca0UWaFa2kgJfX2rwh" name="Page-1">
        <mxGraphModel dx="659" dy="530" grid="1" gridSize="10" guides="1" tooltips="1" connect="1" arrows="1" fold="1" page="1" pageScale="1" pageWidth="827" pageHeight="1169" math="0" shadow="0">
            <root>
                <mxCell id="0"/>
                <mxCell id="1" parent="0"/>
                <mxCell id="3" style="edgeStyle=none;html=1;exitX=0.25;exitY=1;exitDx=0;exitDy=0;entryX=0.5;entryY=0;entryDx=0;entryDy=0;" edge="1" parent="1" source="2" target="4">
                    <mxGeometry relative="1" as="geometry">
                        <mxPoint x="130" y="320" as="targetPoint"/>
                    </mxGeometry>
                </mxCell>
                <mxCell id="2" value="CLASS: BowlingGame&lt;br&gt;&lt;br&gt;&lt;div style=&quot;text-align: left&quot;&gt;Calls methods from other classes to play the round.&amp;nbsp;&lt;/div&gt;&lt;div style=&quot;text-align: left&quot;&gt;&lt;br&gt;&lt;/div&gt;&lt;div style=&quot;text-align: left&quot;&gt;Contains frame information&lt;/div&gt;&lt;div style=&quot;text-align: left&quot;&gt;&lt;br&gt;&lt;/div&gt;&lt;div&gt;METHODS/VARIABLES&lt;/div&gt;&lt;div style=&quot;text-align: left&quot;&gt;attr_accessor :frames, :bonus&lt;/div&gt;&lt;div style=&quot;text-align: left&quot;&gt;@frames = []&lt;/div&gt;&lt;div style=&quot;text-align: left&quot;&gt;@bonus_rolls = 0&lt;/div&gt;&lt;div style=&quot;text-align: left&quot;&gt;@bonus_score = 0&lt;/div&gt;&lt;div style=&quot;text-align: left&quot;&gt;@frame_number = 1&lt;/div&gt;&lt;div style=&quot;text-align: left&quot;&gt;&lt;br&gt;&lt;/div&gt;&lt;div style=&quot;text-align: left&quot;&gt;play: plays the game using frame instances. saves frames in the @frames variable. if bonus is in play, updates the score of the relevant frame to the new score using the frame @bonus variable.&lt;/div&gt;&lt;div style=&quot;text-align: left&quot;&gt;@bonus_rolls tracks number of bonus rolls are left to score&lt;/div&gt;&lt;div style=&quot;text-align: left&quot;&gt;@bonus_score contains the score bonus to add to the relevant frame.&lt;/div&gt;&lt;div style=&quot;text-align: left&quot;&gt;&lt;br&gt;&lt;/div&gt;" style="rounded=1;whiteSpace=wrap;html=1;align=center;" vertex="1" parent="1">
                    <mxGeometry x="190" y="10" width="210" height="360" as="geometry"/>
                </mxCell>
                <mxCell id="4" value="CLASS: Frame&lt;br&gt;&lt;br&gt;&lt;div style=&quot;text-align: left&quot;&gt;Contains methods to score a frame.&lt;/div&gt;&lt;div style=&quot;text-align: left&quot;&gt;&lt;br&gt;&lt;/div&gt;&lt;div&gt;METHODS/VARIABLES:&lt;/div&gt;&lt;div style=&quot;text-align: left&quot;&gt;attr_accessor :pins, :score1, :score2, :bonus&lt;/div&gt;&lt;div style=&quot;text-align: left&quot;&gt;initialize:&lt;/div&gt;&lt;div style=&quot;text-align: left&quot;&gt;@pins = 10&lt;/div&gt;&lt;div style=&quot;text-align: left&quot;&gt;@score1 = 0&lt;span&gt;&#9;&lt;/span&gt;holds score of roll 1&lt;/div&gt;&lt;div style=&quot;text-align: left&quot;&gt;@score2 = 0&lt;span&gt;&#9;&lt;/span&gt;holds score of roll 2&lt;/div&gt;&lt;div style=&quot;text-align: left&quot;&gt;@bonus = false&lt;/div&gt;&lt;div style=&quot;text-align: left&quot;&gt;@bonus_type = ''&lt;/div&gt;&lt;div style=&quot;text-align: left&quot;&gt;&lt;br&gt;&lt;/div&gt;&lt;div style=&quot;text-align: left&quot;&gt;roll_1: takes input from the io and saves the score to the variable @score1&lt;/div&gt;&lt;div style=&quot;text-align: left&quot;&gt;&lt;br&gt;&lt;/div&gt;&lt;div style=&quot;text-align: left&quot;&gt;roll_2:&amp;nbsp;&lt;span&gt;takes input from the io and saves the score to the variable @score2&lt;/span&gt;&lt;/div&gt;&lt;div style=&quot;text-align: left&quot;&gt;&lt;span&gt;&lt;br&gt;&lt;/span&gt;&lt;/div&gt;&lt;div style=&quot;text-align: left&quot;&gt;&lt;span&gt;play_frame: uses the above methods to play a frame. If a strike or spare is scored, @bonus is true.&lt;/span&gt;&lt;/div&gt;&lt;div style=&quot;text-align: left&quot;&gt;&lt;span&gt;&lt;br&gt;&lt;/span&gt;&lt;/div&gt;&lt;div style=&quot;text-align: left&quot;&gt;&lt;span&gt;IF strike @bonus_type becomes 'strike'&lt;/span&gt;&lt;/div&gt;&lt;div style=&quot;text-align: left&quot;&gt;&lt;span&gt;if spare @bonus_type becomes 'spare'&lt;/span&gt;&lt;/div&gt;&lt;div style=&quot;text-align: left&quot;&gt;&lt;span&gt;&lt;br&gt;&lt;/span&gt;&lt;/div&gt;" style="rounded=1;whiteSpace=wrap;html=1;" vertex="1" parent="1">
                    <mxGeometry x="120" y="460" width="260" height="380" as="geometry"/>
                </mxCell>
            </root>
        </mxGraphModel>
    </diagram>
</mxfile>